<svg width="51" height="72" viewBox="0 0 51 72" fill="none" xmlns="http://www.w3.org/2000/svg">
<path d="M50.1138 13.0509C50.113 11.8237 49.6971 10.6328 48.9336 9.67187C48.1702 8.71097 47.1041 8.0366 45.9088 7.75843L44.5313 2.75593C44.2799 1.94701 43.7731 1.24135 43.0869 0.74467C42.4007 0.247993 41.572 -0.0129554 40.725 0.000926022H10.2388C9.39505 -0.0175955 8.56869 0.242167 7.88731 0.7401C7.20593 1.23803 6.70743 1.94644 6.46878 2.75593L5.09128 7.75843C3.85238 8.07086 2.75851 8.7996 1.99296 9.82254C1.2274 10.8455 0.836687 12.1005 0.886281 13.3772C0.883272 14.5355 1.25623 15.6635 1.94913 16.5917C2.64202 17.5199 3.61742 18.1982 4.72878 18.5247L5.09128 28.5659C4.5109 28.6601 3.97669 28.94 3.56878 29.3634C3.31257 29.6337 3.11319 29.9526 2.98243 30.3013C2.85167 30.65 2.7922 31.0213 2.80753 31.3934L3.67753 52.2734C3.70395 52.9151 3.95399 53.5273 4.38432 54.0039C4.81465 54.4806 5.39817 54.7917 6.03378 54.8834L6.32378 62.9309C6.39842 65.3673 7.4217 67.6783 9.17552 69.3711C10.9293 71.064 13.275 72.005 15.7125 71.9934H35.2513C37.6945 72.0126 40.0483 71.0753 41.8096 69.3818C43.5708 67.6883 44.5997 65.373 44.6763 62.9309L44.9663 54.8834C45.595 54.7834 46.1697 54.4688 46.5926 53.993C47.0156 53.5171 47.2607 52.9095 47.2863 52.2734L48.1563 31.3934C48.1716 31.0213 48.1121 30.65 47.9814 30.3013C47.8506 29.9526 47.6512 29.6337 47.395 29.3634C47.0015 28.9404 46.4788 28.6599 45.9088 28.5659L46.2713 18.5247C47.4188 18.1526 48.4142 17.4174 49.1074 16.43C49.8005 15.4426 50.1537 14.2566 50.1138 13.0509ZM10.2388 3.62593L41.015 3.73468L42.1025 7.61343H8.97003L10.2388 3.62593ZM41.0513 62.8222C41.0058 64.3228 40.3721 65.7454 39.287 66.783C38.202 67.8206 36.7525 68.3901 35.2513 68.3684H15.7125C14.2168 68.3833 12.7749 67.8105 11.6971 66.7734C10.6192 65.7362 9.99144 64.3174 9.94878 62.8222L9.65878 54.9197H41.3413L41.0513 62.8222ZM17.8875 41.7247C17.8875 40.2191 18.334 38.7473 19.1705 37.4954C20.0069 36.2435 21.1958 35.2678 22.5869 34.6916C23.9779 34.1155 25.5085 33.9647 26.9852 34.2584C28.4618 34.5522 29.8183 35.2772 30.8829 36.3418C31.9475 37.4065 32.6725 38.7629 32.9663 40.2396C33.26 41.7162 33.1092 43.2469 32.5331 44.6379C31.9569 46.0289 30.9812 47.2178 29.7293 48.0542C28.4774 48.8907 27.0056 49.3372 25.5 49.3372C23.4811 49.3372 21.5448 48.5351 20.1172 47.1075C18.6896 45.6799 17.8875 43.7436 17.8875 41.7247ZM42.2838 28.4934H8.71628L8.35378 18.8147H42.61L42.2838 28.4934ZM44.6763 15.1897H6.32378C6.05988 15.1808 5.80075 15.1168 5.56307 15.0018C5.32538 14.8868 5.11439 14.7233 4.94368 14.5219C4.77296 14.3204 4.6463 14.0855 4.57183 13.8322C4.49736 13.5788 4.47673 13.3127 4.51128 13.0509C4.51128 12.5702 4.70224 12.1092 5.04215 11.7693C5.38206 11.4294 5.84308 11.2384 6.32378 11.2384H44.6763C44.9391 11.2505 45.1965 11.3167 45.4326 11.4327C45.6687 11.5488 45.8784 11.7123 46.0484 11.913C46.2185 12.1137 46.3454 12.3473 46.4212 12.5992C46.4969 12.8511 46.52 13.116 46.4888 13.3772C46.4888 13.8579 46.2978 14.3189 45.9579 14.6588C45.618 14.9987 45.157 15.1897 44.6763 15.1897Z" fill="black"/>
</svg>
