<svg xmlns="http://www.w3.org/2000/svg" viewBox="0 0 351.77 139.54"><defs><style>.cls-1{fill:#141414;}.cls-2{font-size:15.01px;font-family:HelveticaNeueLight, HelveticaNeue;}</style></defs><g id="OBJECTS"><path d="M128.17,168a1.48,1.48,0,0,1-1.48-1.48c0-3.39,1.78-5.18,3.21-6.61s2.34-2.34,2.34-4.51-1-3.2-2.34-4.51-3.21-3.21-3.21-6.6,1.78-5.17,3.21-6.6,2.34-2.35,2.34-4.51-1-3.2-2.34-4.51-3.21-3.21-3.21-6.6,1.78-5.18,3.21-6.61,2.34-2.34,2.34-4.51a1.48,1.48,0,1,1,3,0c0,3.39-1.78,5.17-3.21,6.61s-2.34,2.34-2.34,4.51,1,3.19,2.34,4.5,3.21,3.22,3.21,6.61-1.78,5.17-3.21,6.6-2.34,2.34-2.34,4.51,1,3.2,2.34,4.51,3.21,3.21,3.21,6.6-1.78,5.18-3.21,6.61-2.34,2.34-2.34,4.51A1.48,1.48,0,0,1,128.17,168Z" transform="translate(-80.62 -109.51)"/><path d="M116.09,168a1.48,1.48,0,0,1-1.48-1.48c0-3.39,1.78-5.18,3.21-6.61s2.34-2.34,2.34-4.51-1-3.2-2.34-4.51-3.21-3.21-3.21-6.6,1.78-5.17,3.21-6.6,2.34-2.35,2.34-4.51a1.48,1.48,0,0,1,3,0c0,3.39-1.78,5.17-3.2,6.6s-2.35,2.34-2.35,4.51,1,3.2,2.35,4.51,3.2,3.21,3.2,6.6-1.78,5.18-3.2,6.61-2.35,2.34-2.35,4.51A1.48,1.48,0,0,1,116.09,168Z" transform="translate(-80.62 -109.51)"/><path d="M140.24,168a1.49,1.49,0,0,1-1.48-1.48c0-3.39,1.78-5.18,3.21-6.61s2.35-2.34,2.35-4.51-1-3.2-2.35-4.51-3.21-3.21-3.21-6.6,1.78-5.17,3.21-6.6,2.35-2.35,2.35-4.51a1.48,1.48,0,0,1,3,0c0,3.39-1.78,5.17-3.21,6.6s-2.35,2.34-2.35,4.51,1,3.2,2.35,4.51,3.21,3.21,3.21,6.6-1.78,5.18-3.21,6.61-2.35,2.34-2.35,4.51A1.48,1.48,0,0,1,140.24,168Z" transform="translate(-80.62 -109.51)"/><path d="M147.42,181.35a23.94,23.94,0,1,1-33.85.9L94.42,164.1a50.33,50.33,0,1,0,71.15-1.9Z" transform="translate(-80.62 -109.51)"/><path d="M257,200.16a9.32,9.32,0,1,1-.35-13.18l7.07-7.45a19.6,19.6,0,1,0,.74,27.7Z" transform="translate(-80.62 -109.51)"/><path d="M393.35,204.48H381.48l-2.4,8.62h-9L382.15,175h10.73l12,38.15h-9.22Zm-1.88-6.76-2.5-9.13-1.51-6h-.1L386,188.53l-2.55,9.19Z" transform="translate(-80.62 -109.51)"/><path d="M301.07,175V200a14.77,14.77,0,0,1-1.88,7.53,12.16,12.16,0,0,1-5.41,4.95,18.92,18.92,0,0,1-8.37,1.73q-7.29,0-11.31-3.83t-4-10.48V175h8v23.72q0,4.49,1.75,6.57c1.18,1.4,3.11,2.1,5.82,2.1s4.51-.71,5.69-2.11,1.77-3.61,1.77-6.61V175Z" transform="translate(-80.62 -109.51)"/><path class="cls-1" d="M368.76,186.71q0,6.07-3.8,9.3t-10.82,3.23h-3.43v13.4h-8V175h12q6.86,0,10.43,3T368.76,186.71Zm-18.05,6h2.63a8.77,8.77,0,0,0,5.52-1.46,5.09,5.09,0,0,0,1.83-4.24,5.23,5.23,0,0,0-1.53-4.15,7.18,7.18,0,0,0-4.81-1.34h-3.64Z" transform="translate(-80.62 -109.51)"/><path d="M339.1,186.66q0,6.09-3.8,9.31t-10.82,3.22h-3.43V212.6h-8V174.9h12q6.86,0,10.43,2.95T339.1,186.66Zm-18.05,6h2.63c2.46,0,4.3-.48,5.52-1.46a5.09,5.09,0,0,0,1.83-4.24,5.25,5.25,0,0,0-1.53-4.15,7.21,7.21,0,0,0-4.81-1.34h-3.64Z" transform="translate(-80.62 -109.51)"/><text class="cls-2" transform="translate(130.45 124.64)">Pouring Happiness into Every Cup</text></g></svg>